<svg width="24" height="25" viewBox="0 0 24 25" fill="none" xmlns="http://www.w3.org/2000/svg">
<path d="M22.9837 24.4654C16.9901 25.3875 10.5343 21.7323 8.61328 19.6191C10.5933 14.8975 -1.0922 3.78417 6.97616 3.78373C8.84181 3.78373 10.4353 -1.10349 17.2206 2.56555C17.245 4.04879 17.2206 9.18301 17.2206 10.0571C17.2206 22.1597 24.1363 23.77 22.9837 24.4654Z" fill="#C7C7C7"/>
<path d="M21.1133 23.5C12.1133 23 8.99461 18.9212 7.54638 16.6632C9.78197 12.218 -5.13499 1.90059 1.90317 2.67215C3.5306 2.85066 10.5894 -2.63129 16.1133 1.61934C15.9749 3.07757 16.0385 9.64008 16.1133 10.5C17.1133 22 19.1133 21.5 21.1133 23.5Z" fill="#2F313A"/>
<path d="M6.11328 17.5C6.11328 18.8807 6.73257 21 8.11328 21C9.49399 21 12.1133 18.8807 12.1133 17.5C12.1133 16.1193 9.99399 15 8.61328 15C7.23257 15 6.11328 16.1193 6.11328 17.5Z" fill="#2F313A"/>
</svg>
