<svg width="24" height="25" viewBox="0 0 24 25" fill="none" xmlns="http://www.w3.org/2000/svg">
<path d="M0.129585 24.4654C6.12323 25.3875 12.579 21.7323 14.5 19.6191C12.5199 14.8975 24.2055 3.78417 16.1371 3.78373C14.2715 3.78373 12.678 -1.10349 5.8927 2.56555C5.86825 4.04879 5.8927 9.18301 5.8927 10.0571C5.8927 22.1597 -1.02304 23.77 0.129585 24.4654Z" fill="#E8E8E8"/>
<path d="M2 23.5C11 23 14.1187 18.9212 15.5669 16.6632C13.3313 12.218 28.2483 1.90059 21.2101 2.67215C19.5827 2.85066 12.5239 -2.63129 7 1.61934C7.13837 3.07757 7.07478 9.64008 7 10.5C6 22 4 21.5 2 23.5Z" fill="white"/>
<path d="M17 17.5C17 18.8807 16.3807 21 15 21C13.6193 21 11 18.8807 11 17.5C11 16.1193 13.1193 15 14.5 15C15.8807 15 17 16.1193 17 17.5Z" fill="white"/>
</svg>
